# xmcd
#
# Track frame offsets:
#	150
#	23668
#	60505
#	90762
#	112749
#	138349
#	161657
#	200467
#	233914
#	266466
#	302203
#
# Disc length: 4362 seconds
# Revision: 0
# Processed by: cddbd v1.5.2PL0 Copyright (c) Steve Scherf et al.
# Submitted via: dBpowerAMP V12.0
#
DISCID=8011080b
DTITLE=Sophie Ellis-Bextor - Murder On The Dancefloor
DYEAR=2001
DGENRE=House
TTITLE0=Murder On The Dancefloor [G-Club Vocal Mix Edit]
TTITLE1=Murder On The Dancefloor [G-Club Vocal Mix]
TTITLE2=Murder On The Dancefloor [G-Club Dub Mix]
TTITLE3=Murder On The Dancefloor [Jewels and Stone Mix Edit]
TTITLE4=Murder On The Dancefloor [Jewels and Stone Mix]
TTITLE5=Murder On The Dancefloor [Phunk Investigation Vocal Edit]
TTITLE6=Murder On The Dancefloor [Phunk Investigation Vocal Mix]
TTITLE7=Murder On The Dancefloor [Parky and Birchy Remix]
TTITLE8=Murder On The Dancefloor [Twin Murder Club Mix]
TTITLE9=Murder On The Dancefloor [Danny D Remix]
TTITLE10=Murder On The Dancefloor [Extended Album Version]
EXTD=
EXTT0=
EXTT1=
EXTT2=
EXTT3=
EXTT4=
EXTT5=
EXTT6=
EXTT7=
EXTT8=
EXTT9=
EXTT10=
PLAYORDER=
